<?xml version="1.0" encoding="UTF-8" standalone="no"?>
<!DOCTYPE svg PUBLIC "-//W3C//DTD SVG 1.1//EN"
 "http://www.w3.org/Graphics/SVG/1.1/DTD/svg11.dtd">
<!-- Generated by graphviz version 2.40.1 (20161225.0304)
 -->
<!-- Title: G Pages: 1 -->
<svg width="760pt" height="361pt"
 viewBox="0.00 0.00 760.34 360.91" xmlns="http://www.w3.org/2000/svg" xmlns:xlink="http://www.w3.org/1999/xlink">
<g id="graph0" class="graph" transform="scale(1 1) rotate(0) translate(4 356.9062)">
<title>G</title>
<polygon fill="#ffffff" stroke="transparent" points="-4,4 -4,-356.9062 756.3398,-356.9062 756.3398,4 -4,4"/>
<!-- tt -->
<g id="node1" class="node">
<title>tt</title>
<ellipse fill="none" stroke="#000000" cx="61.21" cy="-180.6347" rx="57.407" ry="57.407"/>
<ellipse fill="none" stroke="#000000" cx="61.21" cy="-180.6347" rx="61.4208" ry="61.4208"/>
<text text-anchor="middle" x="61.21" y="-183.4347" font-family="Times,serif" font-size="14.00" fill="#000000">Build a</text>
<text text-anchor="middle" x="61.21" y="-169.4347" font-family="Times,serif" font-size="14.00" fill="#000000">task tracker</text>
</g>
<!-- ptg -->
<g id="node3" class="node">
<title>ptg</title>
<ellipse fill="none" stroke="#000000" cx="214.6949" cy="-116.6347" rx="52.0664" ry="52.0664"/>
<ellipse fill="none" stroke="#000000" cx="214.6949" cy="-116.6347" rx="56.0505" ry="56.0505"/>
<text text-anchor="middle" x="214.6949" y="-119.4347" font-family="Times,serif" font-size="14.00" fill="#000000">Print a</text>
<text text-anchor="middle" x="214.6949" y="-105.4347" font-family="Times,serif" font-size="14.00" fill="#000000">task graph</text>
</g>
<!-- tt&#45;&gt;ptg -->
<g id="edge1" class="edge">
<title>tt&#45;&gt;ptg</title>
<path fill="none" stroke="#000000" d="M117.9261,-156.9853C129.4484,-152.1807 141.6182,-147.1061 153.2942,-142.2375"/>
<polygon fill="#000000" stroke="#000000" points="154.6476,-145.4653 162.5303,-138.3862 151.9535,-139.0045 154.6476,-145.4653"/>
</g>
<!-- ptc -->
<g id="node4" class="node">
<title>ptc</title>
<ellipse fill="none" stroke="#000000" cx="214.6949" cy="-244.6347" rx="49.5656" ry="49.5656"/>
<ellipse fill="none" stroke="#000000" cx="214.6949" cy="-244.6347" rx="53.5682" ry="53.5682"/>
<text text-anchor="middle" x="214.6949" y="-247.4347" font-family="Times,serif" font-size="14.00" fill="#000000">Print</text>
<text text-anchor="middle" x="214.6949" y="-233.4347" font-family="Times,serif" font-size="14.00" fill="#000000">task costs</text>
</g>
<!-- tt&#45;&gt;ptc -->
<g id="edge4" class="edge">
<title>tt&#45;&gt;ptc</title>
<path fill="none" stroke="#000000" d="M117.9261,-204.2841C130.1749,-209.3916 143.1555,-214.8042 155.4966,-219.9502"/>
<polygon fill="#000000" stroke="#000000" points="154.2098,-223.2057 164.7865,-223.8239 156.9038,-216.7448 154.2098,-223.2057"/>
</g>
<!-- ct -->
<g id="node2" class="node">
<title>ct</title>
<ellipse fill="#7cfc00" stroke="#000000" cx="701.561" cy="-210.6347" rx="46.576" ry="46.576"/>
<ellipse fill="none" stroke="#000000" cx="701.561" cy="-210.6347" rx="50.5586" ry="50.5586"/>
<text text-anchor="middle" x="701.561" y="-213.4347" font-family="Times,serif" font-size="14.00" fill="#000000">Create a</text>
<text text-anchor="middle" x="701.561" y="-199.4347" font-family="Times,serif" font-size="14.00" fill="#000000">task type</text>
</g>
<!-- qt -->
<g id="node5" class="node">
<title>qt</title>
<ellipse fill="none" stroke="#000000" cx="374.2413" cy="-160.6347" rx="36.1003" ry="36.1003"/>
<ellipse fill="none" stroke="#000000" cx="374.2413" cy="-160.6347" rx="40.1056" ry="40.1056"/>
<text text-anchor="middle" x="374.2413" y="-163.4347" font-family="Times,serif" font-size="14.00" fill="#000000">Query</text>
<text text-anchor="middle" x="374.2413" y="-149.4347" font-family="Times,serif" font-size="14.00" fill="#000000">tasks</text>
</g>
<!-- ptg&#45;&gt;qt -->
<g id="edge2" class="edge">
<title>ptg&#45;&gt;qt</title>
<path fill="none" stroke="#000000" d="M269.1555,-131.6539C287.5879,-136.7372 308.0318,-142.3753 325.9512,-147.3172"/>
<polygon fill="#000000" stroke="#000000" points="325.0473,-150.6985 335.6179,-149.9831 326.9083,-143.9504 325.0473,-150.6985"/>
</g>
<!-- ttd -->
<g id="node8" class="node">
<title>ttd</title>
<ellipse fill="none" stroke="#000000" cx="546.1475" cy="-68.6347" rx="64.7617" ry="64.7617"/>
<ellipse fill="none" stroke="#000000" cx="546.1475" cy="-68.6347" rx="68.7696" ry="68.7696"/>
<text text-anchor="middle" x="546.1475" y="-71.4347" font-family="Times,serif" font-size="14.00" fill="#000000">Traverse task</text>
<text text-anchor="middle" x="546.1475" y="-57.4347" font-family="Times,serif" font-size="14.00" fill="#000000">dependencies</text>
</g>
<!-- ptg&#45;&gt;ttd -->
<g id="edge9" class="edge">
<title>ptg&#45;&gt;ttd</title>
<path fill="none" stroke="#000000" d="M270.5465,-108.5464C324.7239,-100.7006 407.4139,-88.7257 468.0887,-79.9389"/>
<polygon fill="#000000" stroke="#000000" points="468.6135,-83.3995 478.0086,-78.5023 467.6102,-76.4718 468.6135,-83.3995"/>
</g>
<!-- ptc&#45;&gt;qt -->
<g id="edge5" class="edge">
<title>ptc&#45;&gt;qt</title>
<path fill="none" stroke="#000000" d="M262.1321,-219.6593C283.496,-208.4114 308.5844,-195.2025 329.6051,-184.1353"/>
<polygon fill="#000000" stroke="#000000" points="331.4266,-187.1318 338.6446,-179.3761 328.1655,-180.9378 331.4266,-187.1318"/>
</g>
<!-- ctc -->
<g id="node7" class="node">
<title>ctc</title>
<ellipse fill="none" stroke="#000000" cx="374.2413" cy="-285.6347" rx="63.0574" ry="63.0574"/>
<ellipse fill="none" stroke="#000000" cx="374.2413" cy="-285.6347" rx="67.0439" ry="67.0439"/>
<text text-anchor="middle" x="374.2413" y="-288.4347" font-family="Times,serif" font-size="14.00" fill="#000000">Compute the</text>
<text text-anchor="middle" x="374.2413" y="-274.4347" font-family="Times,serif" font-size="14.00" fill="#000000">cost of a task</text>
</g>
<!-- ptc&#45;&gt;ctc -->
<g id="edge6" class="edge">
<title>ptc&#45;&gt;ctc</title>
<path fill="none" stroke="#000000" d="M266.9363,-258.0596C277.2342,-260.7059 288.2296,-263.5315 299.1096,-266.3274"/>
<polygon fill="#000000" stroke="#000000" points="298.4891,-269.7816 309.0456,-268.8808 300.2314,-263.0019 298.4891,-269.7816"/>
</g>
<!-- bts -->
<g id="node6" class="node">
<title>bts</title>
<ellipse fill="none" stroke="#000000" cx="546.1475" cy="-210.6347" rx="51.9604" ry="51.9604"/>
<ellipse fill="none" stroke="#000000" cx="546.1475" cy="-210.6347" rx="55.9775" ry="55.9775"/>
<text text-anchor="middle" x="546.1475" y="-213.4347" font-family="Times,serif" font-size="14.00" fill="#000000">Build task</text>
<text text-anchor="middle" x="546.1475" y="-199.4347" font-family="Times,serif" font-size="14.00" fill="#000000">storage</text>
</g>
<!-- qt&#45;&gt;bts -->
<g id="edge3" class="edge">
<title>qt&#45;&gt;bts</title>
<path fill="none" stroke="#000000" d="M412.8204,-171.8556C433.3487,-177.8265 459.1201,-185.3222 482.5196,-192.1281"/>
<polygon fill="#000000" stroke="#000000" points="481.801,-195.5641 492.3806,-194.9962 483.756,-188.8426 481.801,-195.5641"/>
</g>
<!-- bts&#45;&gt;ct -->
<g id="edge8" class="edge">
<title>bts&#45;&gt;ct</title>
<path fill="none" stroke="#000000" d="M602.2553,-210.6347C614.618,-210.6347 627.7729,-210.6347 640.3266,-210.6347"/>
<polygon fill="#000000" stroke="#000000" points="640.6997,-214.1348 650.6997,-210.6347 640.6997,-207.1348 640.6997,-214.1348"/>
</g>
<!-- ctc&#45;&gt;ct -->
<g id="edge7" class="edge">
<title>ctc&#45;&gt;ct</title>
<path fill="none" stroke="#000000" d="M441.3367,-293.2837C490.7393,-296.4529 558.774,-295.5865 614.7822,-275.6347 629.6188,-270.3494 644.0272,-261.5753 656.7024,-252.1576"/>
<polygon fill="#000000" stroke="#000000" points="659.0086,-254.7984 664.7686,-245.9061 654.7204,-249.2656 659.0086,-254.7984"/>
</g>
<!-- ctc&#45;&gt;ttd -->
<g id="edge11" class="edge">
<title>ctc&#45;&gt;ttd</title>
<path fill="none" stroke="#000000" d="M420.321,-236.6C427.7339,-227.8753 435.0765,-218.6795 441.5128,-209.6347 460.4346,-183.0442 458.5449,-172.1922 477.5128,-145.6347 482.0501,-139.2819 487.0323,-132.8599 492.1764,-126.5764"/>
<polygon fill="#000000" stroke="#000000" points="495.0271,-128.6235 498.7576,-118.7071 489.6574,-124.1328 495.0271,-128.6235"/>
</g>
<!-- ttd&#45;&gt;ct -->
<g id="edge10" class="edge">
<title>ttd&#45;&gt;ct</title>
<path fill="none" stroke="#000000" d="M597.0357,-115.1308C616.0908,-132.5413 637.5983,-152.1925 656.1283,-169.1232"/>
<polygon fill="#000000" stroke="#000000" points="654.1282,-172.0367 663.8716,-176.1981 658.8499,-166.8689 654.1282,-172.0367"/>
</g>
</g>
</svg>
