<?xml version="1.0" encoding="UTF-8" standalone="no"?>
<!DOCTYPE svg PUBLIC "-//W3C//DTD SVG 1.1//EN"
 "http://www.w3.org/Graphics/SVG/1.1/DTD/svg11.dtd">
<!-- Generated by graphviz version 2.40.1 (20161225.0304)
 -->
<!-- Title: G Pages: 1 -->
<svg width="760pt" height="447pt"
 viewBox="0.00 0.00 760.34 446.91" xmlns="http://www.w3.org/2000/svg" xmlns:xlink="http://www.w3.org/1999/xlink">
<g id="graph0" class="graph" transform="scale(1 1) rotate(0) translate(4 442.9062)">
<title>G</title>
<polygon fill="#ffffff" stroke="transparent" points="-4,4 -4,-442.9062 756.3398,-442.9062 756.3398,4 -4,4"/>
<!-- tt -->
<g id="node1" class="node">
<title>tt</title>
<ellipse fill="none" stroke="#000000" cx="61.21" cy="-275.2716" rx="57.407" ry="57.407"/>
<ellipse fill="none" stroke="#000000" cx="61.21" cy="-275.2716" rx="61.4208" ry="61.4208"/>
<text text-anchor="middle" x="61.21" y="-278.0716" font-family="Times,serif" font-size="14.00" fill="#000000">Build a</text>
<text text-anchor="middle" x="61.21" y="-264.0716" font-family="Times,serif" font-size="14.00" fill="#000000">task tracker</text>
</g>
<!-- ptg -->
<g id="node3" class="node">
<title>ptg</title>
<ellipse fill="none" stroke="#000000" cx="214.6949" cy="-339.2716" rx="52.0664" ry="52.0664"/>
<ellipse fill="none" stroke="#000000" cx="214.6949" cy="-339.2716" rx="56.0505" ry="56.0505"/>
<text text-anchor="middle" x="214.6949" y="-342.0716" font-family="Times,serif" font-size="14.00" fill="#000000">Print a</text>
<text text-anchor="middle" x="214.6949" y="-328.0716" font-family="Times,serif" font-size="14.00" fill="#000000">task graph</text>
</g>
<!-- tt&#45;&gt;ptg -->
<g id="edge1" class="edge">
<title>tt&#45;&gt;ptg</title>
<path fill="none" stroke="#000000" d="M117.9261,-298.921C129.4484,-303.7255 141.6182,-308.8001 153.2942,-313.6687"/>
<polygon fill="#000000" stroke="#000000" points="151.9535,-316.9017 162.5303,-317.52 154.6476,-310.4409 151.9535,-316.9017"/>
</g>
<!-- ptc -->
<g id="node4" class="node">
<title>ptc</title>
<ellipse fill="none" stroke="#000000" cx="214.6949" cy="-211.2716" rx="49.5656" ry="49.5656"/>
<ellipse fill="none" stroke="#000000" cx="214.6949" cy="-211.2716" rx="53.5682" ry="53.5682"/>
<text text-anchor="middle" x="214.6949" y="-214.0716" font-family="Times,serif" font-size="14.00" fill="#000000">Print</text>
<text text-anchor="middle" x="214.6949" y="-200.0716" font-family="Times,serif" font-size="14.00" fill="#000000">task costs</text>
</g>
<!-- tt&#45;&gt;ptc -->
<g id="edge4" class="edge">
<title>tt&#45;&gt;ptc</title>
<path fill="none" stroke="#000000" d="M117.9261,-251.6222C130.1749,-246.5147 143.1555,-241.102 155.4966,-235.956"/>
<polygon fill="#000000" stroke="#000000" points="156.9038,-239.1614 164.7865,-232.0823 154.2098,-232.7006 156.9038,-239.1614"/>
</g>
<!-- ct -->
<g id="node2" class="node">
<title>ct</title>
<ellipse fill="#708090" stroke="#000000" cx="701.561" cy="-228.2716" rx="46.576" ry="46.576"/>
<ellipse fill="none" stroke="#000000" cx="701.561" cy="-228.2716" rx="50.5586" ry="50.5586"/>
<text text-anchor="middle" x="701.561" y="-231.0716" font-family="Times,serif" font-size="14.00" fill="#000000">Create a</text>
<text text-anchor="middle" x="701.561" y="-217.0716" font-family="Times,serif" font-size="14.00" fill="#000000">task type</text>
</g>
<!-- qt -->
<g id="node5" class="node">
<title>qt</title>
<ellipse fill="#708090" stroke="#000000" cx="374.2413" cy="-328.2716" rx="36.1003" ry="36.1003"/>
<ellipse fill="none" stroke="#000000" cx="374.2413" cy="-328.2716" rx="40.1056" ry="40.1056"/>
<text text-anchor="middle" x="374.2413" y="-331.0716" font-family="Times,serif" font-size="14.00" fill="#000000">Query</text>
<text text-anchor="middle" x="374.2413" y="-317.0716" font-family="Times,serif" font-size="14.00" fill="#000000">tasks</text>
</g>
<!-- ptg&#45;&gt;qt -->
<g id="edge2" class="edge">
<title>ptg&#45;&gt;qt</title>
<path fill="none" stroke="#000000" d="M270.945,-335.3934C288.1816,-334.205 307.0273,-332.9057 323.8474,-331.746"/>
<polygon fill="#000000" stroke="#000000" points="324.2905,-335.2238 334.0261,-331.0442 323.809,-328.2404 324.2905,-335.2238"/>
</g>
<!-- ttd -->
<g id="node8" class="node">
<title>ttd</title>
<ellipse fill="#708090" stroke="#000000" cx="546.1475" cy="-370.2716" rx="64.7617" ry="64.7617"/>
<ellipse fill="none" stroke="#000000" cx="546.1475" cy="-370.2716" rx="68.7696" ry="68.7696"/>
<text text-anchor="middle" x="546.1475" y="-373.0716" font-family="Times,serif" font-size="14.00" fill="#000000">Traverse task</text>
<text text-anchor="middle" x="546.1475" y="-359.0716" font-family="Times,serif" font-size="14.00" fill="#000000">dependencies</text>
</g>
<!-- ptg&#45;&gt;ttd -->
<g id="edge9" class="edge">
<title>ptg&#45;&gt;ttd</title>
<path fill="none" stroke="#000000" d="M265.3176,-364.2514C278.5574,-369.6246 293.0332,-374.5143 306.9697,-377.2716 360.0272,-387.7688 420.9811,-385.7781 468.0759,-381.2865"/>
<polygon fill="#000000" stroke="#000000" points="468.6133,-384.7501 478.2102,-380.2613 467.9087,-377.7856 468.6133,-384.7501"/>
</g>
<!-- ptc&#45;&gt;qt -->
<g id="edge5" class="edge">
<title>ptc&#45;&gt;qt</title>
<path fill="none" stroke="#000000" d="M257.8704,-242.9334C281.4596,-260.232 310.4995,-281.5279 333.6685,-298.5184"/>
<polygon fill="#000000" stroke="#000000" points="331.784,-301.4767 341.9179,-304.5679 335.9236,-295.8318 331.784,-301.4767"/>
</g>
<!-- ctc -->
<g id="node7" class="node">
<title>ctc</title>
<ellipse fill="#708090" stroke="#000000" cx="374.2413" cy="-67.2716" rx="63.0574" ry="63.0574"/>
<ellipse fill="none" stroke="#000000" cx="374.2413" cy="-67.2716" rx="67.0439" ry="67.0439"/>
<text text-anchor="middle" x="374.2413" y="-70.0716" font-family="Times,serif" font-size="14.00" fill="#000000">Compute the</text>
<text text-anchor="middle" x="374.2413" y="-56.0716" font-family="Times,serif" font-size="14.00" fill="#000000">cost of a task</text>
</g>
<!-- ptc&#45;&gt;ctc -->
<g id="edge6" class="edge">
<title>ptc&#45;&gt;ctc</title>
<path fill="none" stroke="#000000" d="M254.5436,-175.3057C273.2859,-158.3898 295.9896,-137.8983 316.5643,-119.3284"/>
<polygon fill="#000000" stroke="#000000" points="318.9585,-121.8823 324.0369,-112.5839 314.2683,-116.6859 318.9585,-121.8823"/>
</g>
<!-- ftc -->
<g id="node9" class="node">
<title>ftc</title>
<ellipse fill="#ff6347" stroke="#000000" cx="374.2413" cy="-211.2716" rx="54.4688" ry="54.4688"/>
<ellipse fill="none" stroke="#000000" cx="374.2413" cy="-211.2716" rx="58.4676" ry="58.4676"/>
<text text-anchor="middle" x="374.2413" y="-214.0716" font-family="Times,serif" font-size="14.00" fill="#000000">Fix broken</text>
<text text-anchor="middle" x="374.2413" y="-200.0716" font-family="Times,serif" font-size="14.00" fill="#000000">task costs</text>
</g>
<!-- ptc&#45;&gt;ftc -->
<g id="edge12" class="edge">
<title>ptc&#45;&gt;ftc</title>
<path fill="none" stroke="#000000" d="M268.2654,-211.2716C280.1471,-211.2716 292.9012,-211.2716 305.2996,-211.2716"/>
<polygon fill="#000000" stroke="#000000" points="305.6038,-214.7717 315.6037,-211.2716 305.6037,-207.7717 305.6038,-214.7717"/>
</g>
<!-- bts -->
<g id="node6" class="node">
<title>bts</title>
<ellipse fill="#708090" stroke="#000000" cx="546.1475" cy="-228.2716" rx="51.9604" ry="51.9604"/>
<ellipse fill="none" stroke="#000000" cx="546.1475" cy="-228.2716" rx="55.9775" ry="55.9775"/>
<text text-anchor="middle" x="546.1475" y="-231.0716" font-family="Times,serif" font-size="14.00" fill="#000000">Build task</text>
<text text-anchor="middle" x="546.1475" y="-217.0716" font-family="Times,serif" font-size="14.00" fill="#000000">storage</text>
</g>
<!-- qt&#45;&gt;bts -->
<g id="edge3" class="edge">
<title>qt&#45;&gt;bts</title>
<path fill="none" stroke="#000000" d="M409.029,-308.0351C431.9466,-294.7037 462.494,-276.9338 488.9389,-261.5505"/>
<polygon fill="#000000" stroke="#000000" points="490.849,-264.4886 497.733,-256.4349 487.3292,-258.4378 490.849,-264.4886"/>
</g>
<!-- bts&#45;&gt;ct -->
<g id="edge8" class="edge">
<title>bts&#45;&gt;ct</title>
<path fill="none" stroke="#000000" d="M602.2553,-228.2716C614.618,-228.2716 627.7729,-228.2716 640.3266,-228.2716"/>
<polygon fill="#000000" stroke="#000000" points="640.6997,-231.7717 650.6997,-228.2716 640.6997,-224.7717 640.6997,-231.7717"/>
</g>
<!-- ctc&#45;&gt;ct -->
<g id="edge7" class="edge">
<title>ctc&#45;&gt;ct</title>
<path fill="none" stroke="#000000" d="M438.3666,-87.6842C488.0654,-104.7166 557.8252,-131.3145 614.7822,-163.2716 628.2484,-170.8271 641.9949,-180.2147 654.4593,-189.4843"/>
<polygon fill="#000000" stroke="#000000" points="652.365,-192.2887 662.4492,-195.5383 656.5925,-186.7094 652.365,-192.2887"/>
</g>
<!-- ctc&#45;&gt;ttd -->
<g id="edge11" class="edge">
<title>ctc&#45;&gt;ttd</title>
<path fill="none" stroke="#000000" d="M422.1901,-115.214C429.4759,-124.3245 436.2912,-134.1819 441.5128,-144.2716 472.8257,-204.7768 445.8992,-232.9229 477.5128,-293.2716 481.1938,-300.2984 485.6559,-307.1989 490.5186,-313.8064"/>
<polygon fill="#000000" stroke="#000000" points="487.9759,-316.2396 496.8636,-322.0067 493.5121,-311.9559 487.9759,-316.2396"/>
</g>
<!-- ttd&#45;&gt;ct -->
<g id="edge10" class="edge">
<title>ttd&#45;&gt;ct</title>
<path fill="none" stroke="#000000" d="M597.0357,-323.7754C616.0908,-306.3649 637.5983,-286.7137 656.1283,-269.783"/>
<polygon fill="#000000" stroke="#000000" points="658.8499,-272.0373 663.8716,-262.7081 654.1282,-266.8695 658.8499,-272.0373"/>
</g>
</g>
</svg>
